<mxfile host="app.diagrams.net" modified="2020-10-11T15:06:36.922Z" agent="5.0 (Windows NT 10.0; Win64; x64) AppleWebKit/537.36 (KHTML, like Gecko) Chrome/85.0.4183.121 Safari/537.36" etag="HSgkj8jYOlA_ibSkB0ZC" version="13.7.9" type="github">
  <diagram name="Page-1" id="0783ab3e-0a74-02c8-0abd-f7b4e66b4bec">
    <mxGraphModel dx="868" dy="450" grid="1" gridSize="10" guides="1" tooltips="1" connect="1" arrows="1" fold="1" page="1" pageScale="1" pageWidth="850" pageHeight="1100" background="#ffffff" math="0" shadow="0">
      <root>
        <mxCell id="0" />
        <mxCell id="1" parent="0" />
        <mxCell id="1c1d494c118603dd-1" value="Pool" style="swimlane;html=1;childLayout=stackLayout;startSize=20;rounded=0;shadow=0;comic=0;labelBackgroundColor=none;strokeWidth=1;fontFamily=Verdana;fontSize=12;align=center;" parent="1" vertex="1">
          <mxGeometry x="40" y="20" width="910" height="990" as="geometry" />
        </mxCell>
        <mxCell id="1c1d494c118603dd-2" value="Lane 1" style="swimlane;html=1;startSize=20;" parent="1c1d494c118603dd-1" vertex="1">
          <mxGeometry y="20" width="360" height="970" as="geometry" />
        </mxCell>
        <mxCell id="1c1d494c118603dd-27" style="edgeStyle=orthogonalEdgeStyle;rounded=0;html=1;labelBackgroundColor=none;startArrow=none;startFill=0;startSize=5;endArrow=classicThin;endFill=1;endSize=5;jettySize=auto;orthogonalLoop=1;strokeWidth=1;fontFamily=Verdana;fontSize=12" parent="1c1d494c118603dd-2" source="60571a20871a0731-4" edge="1">
          <mxGeometry relative="1" as="geometry">
            <mxPoint x="50" y="130" as="targetPoint" />
          </mxGeometry>
        </mxCell>
        <mxCell id="60571a20871a0731-4" value="" style="ellipse;whiteSpace=wrap;html=1;rounded=0;shadow=0;comic=0;labelBackgroundColor=none;strokeWidth=1;fillColor=#000000;fontFamily=Verdana;fontSize=12;align=center;" parent="1c1d494c118603dd-2" vertex="1">
          <mxGeometry x="30" y="40" width="40" height="40" as="geometry" />
        </mxCell>
        <mxCell id="60571a20871a0731-8" value="Registration" style="rounded=1;whiteSpace=wrap;html=1;shadow=0;comic=0;labelBackgroundColor=none;strokeWidth=1;fontFamily=Verdana;fontSize=12;align=center;arcSize=50;" parent="1c1d494c118603dd-2" vertex="1">
          <mxGeometry x="12.5" y="130" width="75" height="30" as="geometry" />
        </mxCell>
        <mxCell id="2mZH6TcdTtF2cEiHDa2Y-20" value="" style="endArrow=none;dashed=1;html=1;dashPattern=1 3;strokeWidth=2;" edge="1" parent="1c1d494c118603dd-2">
          <mxGeometry width="50" height="50" relative="1" as="geometry">
            <mxPoint x="60" y="770" as="sourcePoint" />
            <mxPoint x="150" y="770" as="targetPoint" />
          </mxGeometry>
        </mxCell>
        <mxCell id="2mZH6TcdTtF2cEiHDa2Y-44" value="" style="endArrow=none;dashed=1;html=1;dashPattern=1 3;strokeWidth=2;" edge="1" parent="1c1d494c118603dd-2">
          <mxGeometry width="50" height="50" relative="1" as="geometry">
            <mxPoint x="55" y="729.5" as="sourcePoint" />
            <mxPoint x="145" y="729.5" as="targetPoint" />
          </mxGeometry>
        </mxCell>
        <mxCell id="2mZH6TcdTtF2cEiHDa2Y-51" value="" style="endArrow=none;dashed=1;html=1;dashPattern=1 3;strokeWidth=2;" edge="1" parent="1c1d494c118603dd-2">
          <mxGeometry width="50" height="50" relative="1" as="geometry">
            <mxPoint x="49.5" y="920" as="sourcePoint" />
            <mxPoint x="49.5" y="850" as="targetPoint" />
          </mxGeometry>
        </mxCell>
        <mxCell id="2mZH6TcdTtF2cEiHDa2Y-71" value="If Not Purchased" style="text;html=1;strokeColor=none;fillColor=none;align=center;verticalAlign=middle;whiteSpace=wrap;rounded=0;" vertex="1" parent="1c1d494c118603dd-2">
          <mxGeometry x="70" y="860" width="110" height="20" as="geometry" />
        </mxCell>
        <mxCell id="1c1d494c118603dd-21" value="Onboarding &lt;b&gt;Email&lt;/b&gt; Sequence&lt;br&gt;&lt;br&gt;1.Welcome Message&lt;br&gt;2. Tripwire Product&lt;br&gt;3. Social Proof" style="shape=note;whiteSpace=wrap;html=1;rounded=0;shadow=0;comic=0;labelBackgroundColor=none;strokeWidth=1;fontFamily=Verdana;fontSize=12;align=center;size=20;" parent="1c1d494c118603dd-2" vertex="1">
          <mxGeometry x="65" y="170" width="125" height="100" as="geometry" />
        </mxCell>
        <mxCell id="2mZH6TcdTtF2cEiHDa2Y-45" value="" style="endArrow=none;html=1;" edge="1" parent="1c1d494c118603dd-2">
          <mxGeometry width="50" height="50" relative="1" as="geometry">
            <mxPoint x="50" y="750" as="sourcePoint" />
            <mxPoint x="340" y="750" as="targetPoint" />
          </mxGeometry>
        </mxCell>
        <mxCell id="2mZH6TcdTtF2cEiHDa2Y-70" value="New Email Sequence until 30 Days" style="rounded=0;whiteSpace=wrap;html=1;" vertex="1" parent="1c1d494c118603dd-2">
          <mxGeometry x="77.5" y="890" width="132.5" height="30" as="geometry" />
        </mxCell>
        <mxCell id="2mZH6TcdTtF2cEiHDa2Y-8" value="FB/IG Ads (Recurring for 30 Days until Purchase)&lt;br&gt;&lt;br&gt;1.Carousel/Collection&lt;br&gt;2. Social Proof/ Food Reviews" style="shape=note;whiteSpace=wrap;html=1;rounded=0;shadow=0;comic=0;labelBackgroundColor=none;strokeWidth=1;fontFamily=Verdana;fontSize=12;align=center;size=20;" vertex="1" parent="1c1d494c118603dd-2">
          <mxGeometry x="65" y="290" width="195" height="98" as="geometry" />
        </mxCell>
        <mxCell id="2mZH6TcdTtF2cEiHDa2Y-19" value="Median no of days between registration and purchase = m" style="text;html=1;strokeColor=none;fillColor=none;align=center;verticalAlign=middle;whiteSpace=wrap;rounded=0;" vertex="1" parent="1c1d494c118603dd-2">
          <mxGeometry x="70" y="810" width="200" height="20" as="geometry" />
        </mxCell>
        <mxCell id="2mZH6TcdTtF2cEiHDa2Y-21" value="m+1" style="text;html=1;strokeColor=none;fillColor=none;align=center;verticalAlign=middle;whiteSpace=wrap;rounded=0;" vertex="1" parent="1c1d494c118603dd-2">
          <mxGeometry x="70" y="760" width="200" height="20" as="geometry" />
        </mxCell>
        <mxCell id="2mZH6TcdTtF2cEiHDa2Y-42" value="m-2" style="text;html=1;strokeColor=none;fillColor=none;align=center;verticalAlign=middle;whiteSpace=wrap;rounded=0;" vertex="1" parent="1c1d494c118603dd-2">
          <mxGeometry x="65" y="720" width="200" height="20" as="geometry" />
        </mxCell>
        <mxCell id="2mZH6TcdTtF2cEiHDa2Y-23" value="Phone Call" style="rounded=0;whiteSpace=wrap;html=1;" vertex="1" parent="1c1d494c118603dd-2">
          <mxGeometry x="207.5" y="755" width="100" height="30" as="geometry" />
        </mxCell>
        <mxCell id="2mZH6TcdTtF2cEiHDa2Y-43" value="&lt;font style=&quot;font-size: 8px&quot;&gt;&lt;b&gt;SMS, PN, Email&lt;br&gt;reminding about first time offer&lt;/b&gt;&lt;/font&gt;" style="rounded=0;whiteSpace=wrap;html=1;" vertex="1" parent="1c1d494c118603dd-2">
          <mxGeometry x="185" y="710" width="145" height="30" as="geometry" />
        </mxCell>
        <mxCell id="2mZH6TcdTtF2cEiHDa2Y-7" value="Onboarding &lt;b&gt;Push&lt;/b&gt;&lt;br&gt;Sequence&lt;br&gt;&lt;br&gt;1.Welcome&lt;br&gt;2. Tripwire&lt;br&gt;" style="shape=note;whiteSpace=wrap;html=1;rounded=0;shadow=0;comic=0;labelBackgroundColor=none;strokeWidth=1;fontFamily=Verdana;fontSize=12;align=center;size=20;" vertex="1" parent="1c1d494c118603dd-2">
          <mxGeometry x="190" y="170" width="140" height="80" as="geometry" />
        </mxCell>
        <mxCell id="2mZH6TcdTtF2cEiHDa2Y-49" style="edgeStyle=orthogonalEdgeStyle;rounded=0;orthogonalLoop=1;jettySize=auto;html=1;exitX=0.5;exitY=1;exitDx=0;exitDy=0;entryX=0.25;entryY=1;entryDx=0;entryDy=0;endArrow=none;endFill=0;" edge="1" parent="1c1d494c118603dd-2" source="2mZH6TcdTtF2cEiHDa2Y-43" target="2mZH6TcdTtF2cEiHDa2Y-43">
          <mxGeometry relative="1" as="geometry" />
        </mxCell>
        <mxCell id="1c1d494c118603dd-3" value="Lane 2" style="swimlane;html=1;startSize=20;" parent="1c1d494c118603dd-1" vertex="1">
          <mxGeometry x="360" y="20" width="300" height="970" as="geometry" />
        </mxCell>
        <mxCell id="2mZH6TcdTtF2cEiHDa2Y-47" value="Purchase 1" style="rounded=1;whiteSpace=wrap;html=1;shadow=0;comic=0;labelBackgroundColor=none;strokeWidth=1;fontFamily=Verdana;fontSize=12;align=center;arcSize=50;" vertex="1" parent="1c1d494c118603dd-3">
          <mxGeometry x="20" y="60" width="75" height="30" as="geometry" />
        </mxCell>
        <mxCell id="1c1d494c118603dd-20" value="Users should be a part of a loyalty program, encourage them to earn points with rating and referral&amp;nbsp;" style="shape=note;whiteSpace=wrap;html=1;rounded=0;shadow=0;comic=0;labelBackgroundColor=none;strokeWidth=1;fontFamily=Verdana;fontSize=12;align=center;size=20;" parent="1c1d494c118603dd-3" vertex="1">
          <mxGeometry x="80" y="110" width="160" height="104" as="geometry" />
        </mxCell>
        <mxCell id="1c1d494c118603dd-4" value="Lane 3" style="swimlane;html=1;startSize=20;" parent="1c1d494c118603dd-1" vertex="1">
          <mxGeometry x="660" y="20" width="250" height="970" as="geometry" />
        </mxCell>
        <mxCell id="2mZH6TcdTtF2cEiHDa2Y-48" value="Purchase 2" style="rounded=1;whiteSpace=wrap;html=1;shadow=0;comic=0;labelBackgroundColor=none;strokeWidth=1;fontFamily=Verdana;fontSize=12;align=center;arcSize=50;" vertex="1" parent="1c1d494c118603dd-4">
          <mxGeometry x="90" y="60" width="75" height="30" as="geometry" />
        </mxCell>
        <mxCell id="1c1d494c118603dd-22" value="Note" style="shape=note;whiteSpace=wrap;html=1;rounded=0;shadow=0;comic=0;labelBackgroundColor=none;strokeWidth=1;fontFamily=Verdana;fontSize=12;align=center;size=20;" parent="1c1d494c118603dd-4" vertex="1">
          <mxGeometry x="110" y="415" width="105" height="55" as="geometry" />
        </mxCell>
        <mxCell id="1c1d494c118603dd-25" value="Note" style="shape=note;whiteSpace=wrap;html=1;rounded=0;shadow=0;comic=0;labelBackgroundColor=none;strokeWidth=1;fontFamily=Verdana;fontSize=12;align=center;size=20;" parent="1c1d494c118603dd-4" vertex="1">
          <mxGeometry x="120" y="590" width="115" height="50" as="geometry" />
        </mxCell>
        <mxCell id="1c1d494c118603dd-26" value="Note" style="shape=note;whiteSpace=wrap;html=1;rounded=0;shadow=0;comic=0;labelBackgroundColor=none;strokeWidth=1;fontFamily=Verdana;fontSize=12;align=center;size=20;" parent="1c1d494c118603dd-4" vertex="1">
          <mxGeometry x="150" y="740" width="95" height="45" as="geometry" />
        </mxCell>
        <mxCell id="2mZH6TcdTtF2cEiHDa2Y-4" value="" style="endArrow=none;dashed=1;html=1;" edge="1" parent="1">
          <mxGeometry width="50" height="50" relative="1" as="geometry">
            <mxPoint x="400" y="60" as="sourcePoint" />
            <mxPoint x="450" y="10" as="targetPoint" />
          </mxGeometry>
        </mxCell>
        <mxCell id="2mZH6TcdTtF2cEiHDa2Y-5" style="edgeStyle=orthogonalEdgeStyle;rounded=0;orthogonalLoop=1;jettySize=auto;html=1;endArrow=none;endFill=0;" edge="1" parent="1" source="60571a20871a0731-8">
          <mxGeometry relative="1" as="geometry">
            <mxPoint x="95" y="890" as="targetPoint" />
          </mxGeometry>
        </mxCell>
        <mxCell id="2mZH6TcdTtF2cEiHDa2Y-50" style="edgeStyle=orthogonalEdgeStyle;rounded=0;orthogonalLoop=1;jettySize=auto;html=1;endArrow=none;endFill=0;" edge="1" parent="1" source="2mZH6TcdTtF2cEiHDa2Y-47">
          <mxGeometry relative="1" as="geometry">
            <mxPoint x="528" y="770" as="targetPoint" />
            <Array as="points">
              <mxPoint x="458" y="770" />
            </Array>
          </mxGeometry>
        </mxCell>
      </root>
    </mxGraphModel>
  </diagram>
</mxfile>
